<svg width="30" height="30" viewBox="0 0 30 30" fill="none" xmlns="http://www.w3.org/2000/svg">
    <path d="M13.7812 26.25V23.5625C12.6771 23.3125 11.7238 22.8333 10.9213 22.125C10.1188 21.4167 9.53042 20.4167 9.15625 19.125L11.4688 18.1875C11.7813 19.1875 12.245 19.9479 12.86 20.4688C13.475 20.9896 14.2821 21.25 15.2813 21.25C16.1354 21.25 16.8596 21.0571 17.4538 20.6713C18.0479 20.2854 18.3446 19.6867 18.3438 18.875C18.3438 18.1458 18.1146 17.5679 17.6562 17.1413C17.1979 16.7146 16.1354 16.23 14.4688 15.6875C12.6771 15.125 11.4479 14.4529 10.7813 13.6713C10.1146 12.8896 9.78125 11.9367 9.78125 10.8125C9.78125 9.45833 10.2188 8.40625 11.0938 7.65625C11.9688 6.90625 12.8646 6.47917 13.7812 6.375V3.75H16.2812V6.375C17.3229 6.54167 18.1825 6.92208 18.86 7.51625C19.5375 8.11042 20.0321 8.83417 20.3438 9.6875L18.0312 10.6875C17.7812 10.0208 17.4271 9.52083 16.9688 9.1875C16.5104 8.85417 15.8854 8.6875 15.0938 8.6875C14.1771 8.6875 13.4792 8.89083 13 9.2975C12.5208 9.70417 12.2812 10.2092 12.2812 10.8125C12.2812 11.5 12.5938 12.0417 13.2188 12.4375C13.8438 12.8333 14.9271 13.25 16.4688 13.6875C17.9062 14.1042 18.995 14.7658 19.735 15.6725C20.475 16.5792 20.8446 17.6258 20.8437 18.8125C20.8437 20.2917 20.4062 21.4167 19.5312 22.1875C18.6562 22.9583 17.5729 23.4375 16.2812 23.625V26.25H13.7812Z" fill="#73FF97"/>
</svg>
