<svg width="31" height="30" viewBox="0 0 31 30" fill="none" xmlns="http://www.w3.org/2000/svg">
    <path d="M25.334 10C25.9647 9.9998 26.5722 10.238 27.0347 10.6669C27.4971 11.0957 27.7804 11.6836 27.8277 12.3125L27.834 12.5V23.75C27.8342 24.3807 27.596 24.9882 27.1671 25.4507C26.7383 25.9132 26.1504 26.1964 25.5215 26.2438L25.334 26.25H20.334C19.7033 26.2502 19.0958 26.012 18.6333 25.5831C18.1708 25.1543 17.8875 24.5664 17.8402 23.9375L17.834 23.75V12.5C17.8338 11.8693 18.072 11.2618 18.5009 10.7993C18.9297 10.3368 19.5175 10.0536 20.1465 10.0063L20.334 10H25.334ZM21.584 5C22.247 5 22.8829 5.26339 23.3518 5.73223C23.8206 6.20107 24.084 6.83696 24.084 7.5H19.084C18.0894 7.5 17.1356 7.89509 16.4323 8.59835C15.7291 9.30161 15.334 10.2554 15.334 11.25V25H5.33398C4.67094 25 4.03506 24.7366 3.56622 24.2678C3.09738 23.7989 2.83398 23.163 2.83398 22.5V7.5C2.83398 6.83696 3.09738 6.20107 3.56622 5.73223C4.03506 5.26339 4.67094 5 5.33398 5H21.584Z" fill="#73FF97"/>
</svg>
