<svg width="50" height="50" viewBox="0 0 50 50" fill="none" xmlns="http://www.w3.org/2000/svg">
    <path d="M45.5288 2.94989C44.8345 4.61512 43.936 6.18759 42.8538 7.63114C40.5371 5.23157 37.7625 3.32124 34.6943 2.01328C31.626 0.705317 28.3265 0.0263102 24.9912 0.016466C21.6558 0.00662187 18.3523 0.666141 15.2764 1.95597C12.2005 3.2458 9.41469 5.13971 7.08391 7.52557C4.75312 9.91142 2.92477 12.7407 1.70711 15.8459C0.489445 18.9511 -0.0927649 22.269 -0.00504833 25.6033C0.0826682 28.9375 0.838528 32.2202 2.21777 35.2571C3.59702 38.294 5.5716 41.0232 8.02461 43.2832L8.94961 44.1061C12.4636 47.0703 16.7295 49.0039 21.2748 49.6929C25.8201 50.3818 30.4674 49.7992 34.702 48.0096C38.9365 46.22 42.5931 43.2931 45.2666 39.5533C47.9402 35.8134 49.5264 31.4066 49.8496 26.8207C50.5704 20.5436 48.6663 12.5186 45.5288 2.94989ZM11.6246 43.4895C11.3602 43.8141 11.0055 44.0532 10.6052 44.1764C10.205 44.2996 9.77731 44.3015 9.37605 44.1817C8.97479 44.062 8.61801 43.8261 8.35075 43.5037C8.08348 43.1814 7.91774 42.7871 7.87443 42.3706C7.83112 41.9541 7.9122 41.5341 8.10743 41.1636C8.30265 40.7932 8.60327 40.4889 8.97131 40.2892C9.33936 40.0895 9.75833 40.0033 10.1753 40.0415C10.5923 40.0798 10.9886 40.2407 11.3142 40.5041C11.7408 40.8653 12.0112 41.3774 12.0691 41.9333C12.1269 42.4893 11.9677 43.0482 11.6246 43.4895ZM45.3725 36.0291C39.2496 44.2082 26.0809 41.4311 17.6934 41.8416C17.6934 41.8416 16.2017 41.9457 14.71 42.1499C14.71 42.1499 15.2767 41.8936 15.9975 41.6353C21.9142 39.5791 24.6913 39.1666 28.2913 37.3145C35.0309 33.8686 41.7704 26.3061 43.1079 18.4853C40.535 25.9978 32.7163 32.4791 25.6163 35.102C20.7288 36.9041 11.9329 38.652 11.9329 38.652L11.5725 38.4457C5.60378 35.5145 5.39961 22.5499 16.3059 18.3832C21.0892 16.5291 25.6184 17.5603 30.8121 16.3249C36.3184 15.0395 42.6975 10.9228 45.2704 5.52073C48.1496 14.2166 51.6475 27.6936 45.3725 36.0291Z" fill="#73FF97"/>
</svg>
