<svg width="187" height="46" viewBox="0 0 187 46" fill="none" xmlns="http://www.w3.org/2000/svg">
    <path d="M32.783 12.6024C31.5818 13.1424 30.2882 13.5024 28.9352 13.6691C30.3212 12.8291 31.3772 11.5024 31.8788 9.92908C30.5852 10.6957 29.153 11.2624 27.6284 11.5624C26.4074 10.2491 24.665 9.42908 22.7378 9.42908C19.0352 9.42908 16.0388 12.4557 16.0388 16.1957C16.0388 16.7291 16.0982 17.2424 16.2104 17.7357C10.6466 17.4557 5.70981 14.7624 2.40321 10.6691C1.82901 11.6691 1.49901 12.8291 1.49901 14.0691C1.49901 16.4157 2.68041 18.4891 4.47561 19.7024C3.38001 19.6691 2.34381 19.3624 1.43961 18.8557C1.43961 18.8824 1.43961 18.9091 1.43961 18.9424C1.43961 22.2224 3.74961 24.9557 6.81201 25.5757C6.25101 25.7291 5.65701 25.8157 5.04981 25.8157C4.62081 25.8157 4.19841 25.7757 3.78921 25.6957C4.64061 28.3824 7.11561 30.3424 10.046 30.3957C7.75581 32.2091 4.86501 33.2891 1.73001 33.2891C1.18881 33.2891 0.654212 33.2557 0.132812 33.1957C3.09621 35.1157 6.62061 36.2357 10.4024 36.2357C22.7246 36.2357 29.4632 25.9291 29.4632 16.9824C29.4632 16.6891 29.4566 16.3957 29.4434 16.1091C30.7502 15.1491 31.8854 13.9557 32.783 12.6024Z" fill="#F0F0F0"/>
    <path fill-rule="evenodd" clip-rule="evenodd" d="M85.79 7.22607C76.5164 7.22607 69 14.5791 69 23.6511C69 30.9051 73.8116 37.0611 80.4816 39.2391C81.3188 39.3921 81.6316 38.8791 81.6316 38.4471C81.6316 38.0511 81.6132 36.7641 81.6132 35.3871C76.9396 36.3771 75.9552 33.4521 75.9552 33.4521C75.1916 31.5531 74.0876 31.0491 74.0876 31.0491C72.5604 30.0321 74.198 30.0501 74.198 30.0501C75.8816 30.1671 76.774 31.7421 76.774 31.7421C78.2736 34.2531 80.7024 33.5241 81.6592 33.1101C81.8064 32.0481 82.248 31.3281 82.7264 30.9141C79.0004 30.5001 75.072 29.0871 75.072 22.7961C75.072 21.0051 75.7252 19.5381 76.8016 18.3861C76.6268 17.9721 76.0564 16.2981 76.9672 14.0391C76.9672 14.0391 78.3748 13.5981 81.5856 15.7221C82.9288 15.3621 84.364 15.1731 85.79 15.1731C87.216 15.1821 88.6512 15.3621 89.9944 15.7221C93.196 13.5981 94.6036 14.0391 94.6036 14.0391C95.5144 16.2981 94.944 17.9721 94.7692 18.3861C95.8456 19.5381 96.4988 21.0051 96.4988 22.7961C96.4988 29.1051 92.5704 30.4911 88.8352 30.8961C89.4332 31.4091 89.976 32.4081 89.976 33.9381C89.976 36.1341 89.9576 37.9071 89.9576 38.4471C89.9576 38.8881 90.2612 39.3921 91.1076 39.2391C97.7776 37.0611 102.58 30.9141 102.58 23.6511C102.58 14.5791 95.0636 7.22607 85.79 7.22607Z" fill="#F0F0F0"/>
    <path d="M75.3564 30.8061C75.3196 30.8871 75.1908 30.9141 75.0712 30.8601C74.9516 30.8061 74.878 30.6981 74.924 30.6171C74.9608 30.5361 75.0896 30.5091 75.2092 30.5631C75.3288 30.6171 75.4024 30.7251 75.3564 30.8061Z" fill="#F0F0F0"/>
    <path d="M76.0375 31.5531C75.9547 31.6251 75.7983 31.5891 75.6971 31.4811C75.5867 31.3641 75.5683 31.2111 75.6511 31.1391C75.7339 31.0671 75.8811 31.1031 75.9915 31.2111C76.1019 31.3281 76.1203 31.4811 76.0375 31.5531Z" fill="#F0F0F0"/>
    <path d="M76.7011 32.4981C76.5999 32.5701 76.4343 32.5071 76.3239 32.3541C76.2227 32.2101 76.2227 32.0301 76.3239 31.9581C76.4251 31.8861 76.5907 31.9491 76.7011 32.0931C76.8115 32.2461 76.8115 32.4261 76.7011 32.4981Z" fill="#F0F0F0"/>
    <path d="M77.6117 33.4071C77.5197 33.5061 77.3265 33.4791 77.1793 33.3441C77.0321 33.2091 76.9953 33.0201 77.0873 32.9211C77.1793 32.8221 77.3817 32.8491 77.5197 32.9841C77.6669 33.1281 77.7037 33.3171 77.6117 33.4071Z" fill="#F0F0F0"/>
    <path d="M78.8621 33.938C78.8253 34.064 78.6321 34.127 78.4389 34.073C78.2457 34.019 78.1261 33.866 78.1629 33.74C78.1997 33.614 78.3929 33.551 78.5861 33.605C78.7701 33.659 78.8989 33.812 78.8621 33.938Z" fill="#F0F0F0"/>
    <path d="M80.2327 34.0371C80.2419 34.1721 80.0763 34.2891 79.8739 34.2891C79.6715 34.2981 79.5151 34.1811 79.5059 34.0461C79.5059 33.9111 79.6623 33.7941 79.8647 33.7941C80.0671 33.7941 80.2327 33.9021 80.2327 34.0371Z" fill="#F0F0F0"/>
    <path d="M81.5125 33.8301C81.5401 33.9651 81.4021 34.1001 81.1997 34.1361C81.0065 34.1721 80.8225 34.0911 80.8041 33.9561C80.7765 33.8211 80.9237 33.6861 81.1169 33.6501C81.3101 33.6141 81.4849 33.6951 81.5125 33.8301Z" fill="#F0F0F0"/>
    <g clip-path="url(#clip0_232_131)">
        <path d="M178.933 8.29462C184.131 15.9157 186.698 24.5121 185.738 34.4085C185.734 34.4504 185.713 34.4888 185.678 34.5141C181.742 37.3964 177.928 39.1456 174.168 40.3056C174.139 40.3145 174.107 40.314 174.078 40.3042C174.049 40.2945 174.024 40.2759 174.006 40.2511C173.138 39.0458 172.348 37.775 171.657 36.4406C171.617 36.362 171.653 36.2673 171.735 36.2364C172.989 35.7653 174.181 35.2008 175.327 34.5324C175.417 34.4797 175.423 34.3506 175.34 34.2886C175.096 34.1085 174.855 33.9192 174.625 33.7298C174.582 33.6948 174.523 33.688 174.475 33.7115C167.031 37.1394 158.876 37.1394 151.344 33.7115C151.295 33.6897 151.237 33.6971 151.195 33.7316C150.965 33.9209 150.724 34.1085 150.483 34.2886C150.399 34.3506 150.406 34.4797 150.497 34.5324C151.644 35.1882 152.836 35.7653 154.087 36.2386C154.169 36.2696 154.207 36.362 154.167 36.4406C153.49 37.7768 152.701 39.0475 151.816 40.2529C151.778 40.3016 151.714 40.324 151.654 40.3056C147.912 39.1456 144.098 37.3964 140.162 34.5141C140.129 34.4888 140.106 34.4487 140.102 34.4068C139.3 25.8466 140.935 17.179 146.901 8.2929C146.916 8.26938 146.938 8.25102 146.963 8.24012C149.899 6.8965 153.044 5.90801 156.331 5.34348C156.391 5.3343 156.451 5.36184 156.482 5.41462C156.888 6.13175 157.352 7.0514 157.666 7.80296C161.131 7.27515 164.651 7.27515 168.188 7.80296C168.502 7.06747 168.95 6.13175 169.355 5.41462C169.369 5.38844 169.392 5.36746 169.419 5.35469C169.446 5.34191 169.476 5.33799 169.506 5.34348C172.795 5.90973 175.94 6.89822 178.873 8.24012C178.899 8.25102 178.92 8.26938 178.933 8.29462ZM159.428 24.5706C159.464 22.04 157.614 19.946 155.292 19.946C152.988 19.946 151.156 22.0217 151.156 24.5706C151.156 27.119 153.024 29.1947 155.292 29.1947C157.596 29.1947 159.428 27.119 159.428 24.5706ZM174.721 24.5706C174.757 22.04 172.907 19.946 170.585 19.946C168.281 19.946 166.448 22.0217 166.448 24.5706C166.448 27.119 168.317 29.1947 170.585 29.1947C172.907 29.1947 174.721 27.119 174.721 24.5706Z" fill="#F0F0F0"/>
    </g>
    <defs>
        <clipPath id="clip0_232_131">
            <rect width="48" height="35" fill="white" transform="translate(139 5.3291)"/>
        </clipPath>
    </defs>
</svg>
