<svg width="140" height="71" viewBox="0 0 140 71" fill="none" xmlns="http://www.w3.org/2000/svg">
<g id="Logo">
<path id="Vector" d="M4.09351 41.0916H8.03126V60.4296H4.09351V41.0916Z" fill="#AD63E7"/>
<path id="Vector_2" d="M10.315 53.804C10.3124 52.415 10.7213 51.0564 11.4899 49.9002C12.2585 48.7441 13.3523 47.8422 14.6328 47.3089C15.9133 46.7755 17.323 46.6347 18.6835 46.904C20.0441 47.1734 21.2942 47.841 22.2757 48.8223C23.2573 49.8035 23.9262 51.0543 24.1977 52.4164C24.4693 53.7785 24.3313 55.1907 23.8011 56.4743C23.271 57.7577 22.3726 58.8549 21.2196 59.6268C20.0667 60.3989 18.7111 60.8109 17.3243 60.8109C16.4019 60.8214 15.4868 60.6476 14.6325 60.2992C13.7783 59.9511 13.002 59.4355 12.3492 58.7829C11.6964 58.1304 11.1802 57.3539 10.8309 56.4988C10.4816 55.6439 10.3062 54.7277 10.315 53.804ZM20.3693 53.804C20.3539 53.2044 20.1622 52.6226 19.8183 52.1316C19.4745 51.6404 18.9937 51.2619 18.436 51.0431C17.8783 50.8242 17.2687 50.7751 16.6833 50.9015C16.0979 51.0279 15.5627 51.3244 15.1446 51.7539C14.7266 52.1834 14.4443 52.7269 14.333 53.3163C14.2218 53.9056 14.2865 54.5148 14.5191 55.0675C14.7518 55.6202 15.142 56.092 15.6408 56.4238C16.1398 56.7555 16.7253 56.9326 17.3243 56.9327C17.7339 56.9443 18.1416 56.8706 18.5215 56.7164C18.9014 56.5621 19.2452 56.3308 19.5314 56.0367C19.8175 55.7427 20.0398 55.3926 20.1839 55.0083C20.3282 54.624 20.3913 54.214 20.3693 53.804Z" fill="#AD63E7"/>
<path id="Vector_3" d="M40.163 47.1782V59.7722C40.163 64.2288 36.6846 66.1087 33.167 66.1087C31.93 66.2009 30.6915 65.9503 29.5872 65.3845C28.4828 64.8188 27.5553 63.9595 26.906 62.9011L30.2924 60.9423C30.5611 61.4847 30.9863 61.9339 31.5129 62.2316C32.0394 62.5292 32.6431 62.6618 33.2458 62.6118C33.6422 62.678 34.0486 62.6522 34.4337 62.536C34.8187 62.4201 35.1719 62.2171 35.4662 61.9427C35.7603 61.6683 35.9877 61.3299 36.1307 60.9536C36.2738 60.5773 36.3285 60.1731 36.2909 59.7722V58.5496C35.828 59.1201 35.2372 59.5733 34.5668 59.8724C33.8964 60.1716 33.165 60.3085 32.4319 60.2718C30.6495 60.2718 28.9403 59.5627 27.6798 58.3004C26.4195 57.0381 25.7114 55.3261 25.7114 53.5409C25.7114 51.7557 26.4195 50.0438 27.6798 48.7815C28.9403 47.5193 30.6495 46.8101 32.4319 46.8101C33.1646 46.7765 33.8949 46.9148 34.5649 47.2137C35.2349 47.5127 35.8259 47.9642 36.2909 48.5322V47.2176L40.163 47.1782ZM36.2909 53.5409C36.3171 52.9016 36.1517 52.269 35.8162 51.7244C35.4805 51.1799 34.99 50.7484 34.4075 50.4854C33.8251 50.2223 33.1774 50.1397 32.5477 50.2483C31.9181 50.3568 31.3352 50.6515 30.8742 51.0943C30.413 51.5373 30.0947 52.1082 29.9601 52.7337C29.8254 53.3592 29.8807 54.0109 30.1188 54.6046C30.3569 55.1985 30.7669 55.7074 31.296 56.066C31.8252 56.4248 32.4493 56.6166 33.0882 56.6172C33.5053 56.6467 33.9238 56.5885 34.3169 56.4461C34.7101 56.3036 35.0692 56.0805 35.371 55.7906C35.6726 55.5008 35.9104 55.1508 36.0689 54.7634C36.2273 54.3759 36.3029 53.9595 36.2909 53.5409Z" fill="#AD63E7"/>
<path id="Vector_4" d="M42.4339 53.804C42.4313 52.415 42.8402 51.0564 43.6087 49.9002C44.3774 48.7441 45.4712 47.8422 46.7517 47.3089C48.0321 46.7755 49.4419 46.6347 50.8024 46.904C52.1629 47.1734 53.4131 47.841 54.3947 48.8223C55.3762 49.8035 56.0451 51.0543 56.3167 52.4164C56.5881 53.7785 56.4501 55.1907 55.92 56.4743C55.3898 57.7577 54.4915 58.8549 53.3386 59.6268C52.1856 60.3989 50.8299 60.8109 49.4431 60.8109C48.5209 60.8214 47.6057 60.6476 46.7514 60.2992C45.8971 59.9511 45.1208 59.4355 44.468 58.7829C43.8153 58.1304 43.2991 57.3539 42.9497 56.4988C42.6004 55.6439 42.425 54.7277 42.4339 53.804ZM52.4883 53.804C52.4728 53.2044 52.2811 52.6226 51.9372 52.1316C51.5933 51.6404 51.1125 51.2619 50.5549 51.0431C49.9973 50.8242 49.3877 50.7751 48.8022 50.9015C48.2167 51.0279 47.6816 51.3244 47.2635 51.7539C46.8455 52.1834 46.5632 52.7269 46.4518 53.3163C46.3406 53.9056 46.4054 54.5148 46.638 55.0675C46.8707 55.6202 47.2608 56.092 47.7597 56.4238C48.2587 56.7555 48.8442 56.9326 49.4431 56.9327C49.8507 56.9405 50.2554 56.8642 50.6323 56.7083C51.009 56.5524 51.3497 56.3205 51.6329 56.0268C51.9162 55.7334 52.136 55.3844 52.2787 55.0019C52.4213 54.6195 52.4838 54.2116 52.4621 53.804H52.4883Z" fill="#AD63E7"/>
<path id="Vector_5" d="M58.2769 43.6289C58.2769 43.1557 58.417 42.6931 58.6794 42.2997C58.942 41.9063 59.315 41.5996 59.7515 41.4185C60.1881 41.2373 60.6683 41.19 61.1318 41.2823C61.5952 41.3746 62.0208 41.6025 62.355 41.937C62.6891 42.2717 62.9165 42.698 63.0087 43.1621C63.101 43.6263 63.0536 44.1074 62.8729 44.5445C62.6921 44.9817 62.3858 45.3555 61.993 45.6183C61.6001 45.8812 61.1383 46.0215 60.6657 46.0215C60.0333 46.0181 59.4276 45.7649 58.9803 45.3169C58.533 44.8691 58.2803 44.2625 58.2769 43.6289ZM58.6837 47.1784H62.6214V60.4297H58.6837V47.1784Z" fill="#AD63E7"/>
<path id="Vector_6" d="M79.7898 53.804C79.8375 54.6799 79.7118 55.5567 79.4199 56.3838C79.1279 57.2109 78.6756 57.972 78.0887 58.6232C77.5019 59.2745 76.7923 59.8031 76.0007 60.1785C75.2091 60.554 74.3512 60.7689 73.4763 60.811C72.7418 60.8462 72.0085 60.7198 71.3282 60.4404C70.6478 60.161 70.0369 59.7356 69.5386 59.194V65.7671H65.6008V47.1783H69.5386V48.4272C70.0369 47.8857 70.6478 47.4602 71.3282 47.1808C72.0085 46.9014 72.7418 46.775 73.4763 46.8102C74.35 46.8523 75.2068 47.0668 75.9975 47.4414C76.7882 47.8162 77.4973 48.3435 78.0839 48.9934C78.6706 49.6433 79.1232 50.4027 79.4159 51.2282C79.7088 52.0538 79.8358 52.9292 79.7898 53.804ZM75.8521 53.804C75.8365 53.187 75.6405 52.5881 75.2884 52.0815C74.9363 51.575 74.4437 51.1828 73.8715 50.954C73.2992 50.725 72.6723 50.6691 72.0688 50.7935C71.4651 50.9176 70.911 51.2165 70.4753 51.653C70.0395 52.0894 69.7412 52.6442 69.6171 53.2488C69.4931 53.8534 69.5488 54.4811 69.7774 55.0543C70.006 55.6274 70.3974 56.121 70.9033 56.4734C71.4091 56.8261 72.0071 57.0224 72.6231 57.038C73.053 57.0654 73.4838 57.0002 73.8866 56.8471C74.2893 56.6938 74.6546 56.4561 74.958 56.1498C75.2613 55.8434 75.4958 55.4756 75.6455 55.071C75.7951 54.6664 75.8567 54.2344 75.8258 53.804H75.8521Z" fill="#AD63E7"/>
<path id="Vector_7" d="M92.0496 56.4595C92.0496 59.5094 89.4244 60.8108 86.5367 60.8108C85.3831 60.9131 84.2254 60.6673 83.2125 60.105C82.1998 59.5427 81.378 58.6897 80.8533 57.6557L84.2923 55.697C84.4318 56.1752 84.7307 56.5912 85.1389 56.8757C85.5473 57.1603 86.0405 57.2964 86.5367 57.2613C87.495 57.2613 87.9674 56.959 87.9674 56.4332C87.9674 54.9739 81.4045 55.7496 81.4045 51.1747C81.4045 48.2825 83.8459 46.8232 86.6549 46.8232C87.6914 46.7918 88.7175 47.0383 89.6268 47.5377C90.5362 48.0369 91.2955 48.7707 91.8265 49.6628L88.3744 51.4771C88.2219 51.1299 87.972 50.8345 87.6551 50.6267C87.3382 50.419 86.968 50.3079 86.5892 50.307C85.9068 50.307 85.4867 50.5699 85.4867 51.0564C85.5392 52.5681 92.0496 51.5559 92.0496 56.4595Z" fill="#AD63E7"/>
<path id="Vector_8" d="M106.541 47.1782V60.4296H102.603V59.1939C102.145 59.743 101.563 60.1757 100.906 60.4568C100.249 60.7378 99.5352 60.8591 98.8224 60.8109C96.1973 60.8109 93.874 58.9046 93.874 55.3158V47.1782H97.8118V54.7374C97.7771 55.0595 97.8147 55.3853 97.9214 55.6911C98.0282 55.997 98.2015 56.2751 98.4291 56.5055C98.6565 56.7359 98.9324 56.9126 99.2365 57.0229C99.5406 57.1333 99.8656 57.1742 100.188 57.1431C101.631 57.1431 102.642 56.3017 102.642 54.4219V47.1782H106.541Z" fill="#AD63E7"/>
<path id="Vector_9" d="M129.301 52.3051V60.4294H125.363V52.647C125.363 51.3323 124.72 50.4646 123.459 50.4646C122.199 50.4646 121.386 51.3981 121.386 52.9624V60.4294H117.448V52.647C117.448 51.3323 116.818 50.4646 115.545 50.4646C114.271 50.4646 113.484 51.3981 113.484 52.9624V60.4294H109.546V47.1782H113.484V48.4007C113.895 47.8607 114.435 47.4324 115.054 47.1546C115.673 46.8768 116.352 46.7583 117.028 46.8101C117.707 46.7769 118.383 46.9207 118.99 47.227C119.598 47.5334 120.115 47.9921 120.493 48.5585C120.932 47.9664 121.514 47.4954 122.185 47.1897C122.855 46.884 123.592 46.7533 124.326 46.8101C127.319 46.8101 129.301 48.9923 129.301 52.3051Z" fill="#AD63E7"/>
<path id="Vector_10" d="M132.661 47.0995C134.285 47.0995 135.601 45.781 135.601 44.1547C135.601 42.5283 134.285 41.21 132.661 41.21C131.037 41.21 129.721 42.5283 129.721 44.1547C129.721 45.781 131.037 47.0995 132.661 47.0995Z" fill="#AD63E7"/>
<path id="Vector_11" d="M48.6555 31.0612C56.2599 31.0612 62.4245 24.887 62.4245 17.2708C62.4245 9.65463 56.2599 3.48047 48.6555 3.48047C41.0511 3.48047 34.8865 9.65463 34.8865 17.2708C34.8865 24.887 41.0511 31.0612 48.6555 31.0612Z" fill="#AD63E7"/>
<path id="Vector_12" d="M79.4356 31.0612C87.04 31.0612 93.2045 24.887 93.2045 17.2708C93.2045 9.65463 87.04 3.48047 79.4356 3.48047C71.8312 3.48047 65.6665 9.65463 65.6665 17.2708C65.6665 24.887 71.8312 31.0612 79.4356 31.0612Z" fill="#AD63E7"/>
<path id="Vector_13" d="M31.6445 3.48047H4.11963V31.048H31.6445V3.48047Z" fill="#AD63E7"/>
</g>
</svg>
