<svg width="40" height="40" viewBox="0 0 40 40" fill="none" xmlns="http://www.w3.org/2000/svg">
<g id="uim:linkedin">
<path id="Vector" d="M8.47661 16.1849H13.4799V31.2366H8.47661V16.1849ZM10.9783 14.1299H10.9449C10.5859 14.1537 10.2258 14.1029 9.88726 13.9807C9.54876 13.8586 9.23921 13.6677 8.97806 13.4201C8.71691 13.1725 8.50982 12.8736 8.36981 12.5421C8.2298 12.2106 8.15991 11.8537 8.16452 11.4938C8.16913 11.134 8.24816 10.779 8.39662 10.4512C8.54508 10.1234 8.75976 9.82986 9.02717 9.58904C9.29458 9.34823 9.60893 9.16535 9.95045 9.05192C10.292 8.93849 10.6533 8.89695 11.0116 8.92992C11.3707 8.90355 11.7313 8.95181 12.0708 9.07165C12.4103 9.19149 12.7213 9.38032 12.9843 9.62624C13.2472 9.87217 13.4564 10.1699 13.5987 10.5006C13.7409 10.8313 13.8132 11.1879 13.8109 11.548C13.8086 11.908 13.7318 12.2636 13.5853 12.5925C13.4388 12.9214 13.2258 13.2164 12.9597 13.4589C12.6936 13.7015 12.3802 13.8863 12.0392 14.0018C11.6982 14.1173 11.337 14.1609 10.9783 14.1299ZM31.5199 31.2366H26.5166V23.1866C26.5166 21.1616 25.7933 19.7816 23.9833 19.7816C23.419 19.785 22.8696 19.9627 22.4102 20.2902C21.9508 20.6178 21.6038 21.0793 21.4166 21.6116C21.2874 22.0047 21.2309 22.4182 21.2499 22.8316V31.2366H16.2499C16.2499 31.2316 16.3166 17.5966 16.2499 16.1866H21.2533V18.3199C21.7053 17.5325 22.3646 16.8841 23.1595 16.4453C23.9544 16.0066 24.8544 15.7943 25.7616 15.8316C29.0533 15.8316 31.5216 17.9832 31.5216 22.6066L31.5199 31.2366Z" fill="white"/>
<path id="Vector_2" d="M34.1134 3.33324H5.88677C5.24521 3.32523 4.62674 3.57232 4.16731 4.02018C3.70788 4.46805 3.44511 5.08002 3.43677 5.72157V34.2799C3.4551 35.6132 4.55177 36.6832 5.88677 36.6666H34.1134C34.431 36.6708 34.7463 36.6123 35.0413 36.4947C35.3363 36.377 35.6053 36.2023 35.8328 35.9807C36.0603 35.7591 36.2419 35.4948 36.3673 35.203C36.4926 34.9112 36.5593 34.5975 36.5634 34.2799V5.72157C36.5595 5.4037 36.493 5.08972 36.3676 4.79759C36.2422 4.50546 36.0605 4.24092 35.8328 4.01909C35.6051 3.79727 35.3359 3.62251 35.0406 3.50483C34.7452 3.38714 34.4296 3.32883 34.1118 3.33324H34.1134ZM13.4801 31.2366H8.47677V16.1849H13.4801V31.2366ZM11.3884 14.1332C11.2519 14.1429 11.1148 14.1417 10.9784 14.1299H10.9451C10.586 14.1537 10.2259 14.1029 9.88742 13.9807C9.54892 13.8586 9.23937 13.6677 8.97822 13.4201C8.71707 13.1725 8.50998 12.8736 8.36997 12.5421C8.22996 12.2106 8.16007 11.8537 8.16468 11.4938C8.1693 11.134 8.24832 10.779 8.39678 10.4512C8.54524 10.1234 8.75992 9.82985 9.02734 9.58904C9.29475 9.34822 9.60909 9.16535 9.95061 9.05191C10.2921 8.93848 10.6534 8.89694 11.0118 8.92991C11.7018 8.87996 12.3834 9.10616 12.9066 9.55875C13.4298 10.0113 13.7518 10.6532 13.8018 11.3432C13.8517 12.0332 13.6255 12.7148 13.1729 13.2381C12.7203 13.7613 12.0784 14.0833 11.3884 14.1332ZM31.5201 31.2366H26.5168V23.1866C26.5168 21.1616 25.7934 19.7816 23.9834 19.7816C23.4192 19.785 22.8698 19.9626 22.4104 20.2902C21.9509 20.6178 21.6039 21.0793 21.4168 21.6116C21.2881 22.0049 21.2317 22.4182 21.2501 22.8316V31.2366H16.2501C16.2501 31.2316 16.3168 17.5966 16.2501 16.1866H21.2534V18.3199C21.7054 17.5325 22.3647 16.8841 23.1597 16.4453C23.9546 16.0066 24.8546 15.7943 25.7618 15.8316C29.0534 15.8316 31.5218 17.9832 31.5218 22.6066L31.5201 31.2366Z" fill="#0A66C2"/>
</g>
</svg>
