<svg width="139" height="71" viewBox="0 0 139 71" fill="none" xmlns="http://www.w3.org/2000/svg">
    <path d="M3.59375 41.0918H7.53151V60.4298H3.59375V41.0918Z" fill="#AD63E7"/>
    <path d="M9.81477 53.8037C9.81217 52.4148 10.221 51.0562 10.9896 49.9C11.7582 48.7438 12.852 47.842 14.1326 47.3086C15.413 46.7753 16.8228 46.6344 18.1833 46.9038C19.5438 47.1732 20.794 47.8407 21.7755 48.8221C22.7571 49.8032 23.426 51.0541 23.6974 52.4162C23.969 53.7783 23.831 55.1905 23.3009 56.474C22.7707 57.7575 21.8724 58.8546 20.7194 59.6266C19.5665 60.3987 18.2108 60.8106 16.824 60.8106C15.9016 60.8212 14.9866 60.6473 14.1323 60.299C13.278 59.9508 12.5017 59.4353 11.8489 58.7827C11.1961 58.1302 10.6799 57.3536 10.3307 56.4985C9.98136 55.6436 9.80597 54.7274 9.81477 53.8037ZM19.8691 53.8037C19.8537 53.2041 19.662 52.6224 19.3181 52.1314C18.9742 51.6402 18.4934 51.2617 17.9357 51.0428C17.3781 50.824 16.7684 50.7748 16.1831 50.9012C15.5976 51.0276 15.0625 51.3242 14.6444 51.7537C14.2264 52.1831 13.9441 52.7266 13.8328 53.3161C13.7215 53.9054 13.7863 54.5146 14.0189 55.0673C14.2516 55.62 14.6417 56.0918 15.1406 56.4235C15.6396 56.7553 16.2251 56.9323 16.824 56.9325C17.2337 56.944 17.6413 56.8704 18.0212 56.7161C18.4011 56.5619 18.745 56.3305 19.0312 56.0365C19.3173 55.7425 19.5395 55.3923 19.6837 55.0081C19.828 54.6237 19.8911 54.2137 19.8691 53.8037Z" fill="#AD63E7"/>
    <path d="M39.6625 47.1782V59.7722C39.6625 64.2288 36.1842 66.1087 32.6665 66.1087C31.4295 66.2009 30.191 65.9503 29.0867 65.3845C27.9823 64.8188 27.0548 63.9595 26.4055 62.9011L29.792 60.9423C30.0606 61.4847 30.4858 61.9339 31.0124 62.2316C31.5389 62.5292 32.1426 62.6618 32.7453 62.6118C33.1417 62.678 33.5482 62.6522 33.9332 62.536C34.3182 62.4201 34.6714 62.2171 34.9657 61.9427C35.2598 61.6683 35.4872 61.3299 35.6302 60.9536C35.7733 60.5773 35.828 60.1731 35.7904 59.7722V58.5496C35.3275 59.1201 34.7367 59.5733 34.0663 59.8724C33.396 60.1716 32.6645 60.3085 31.9314 60.2718C30.1491 60.2718 28.4398 59.5627 27.1793 58.3004C25.919 57.0381 25.2109 55.3261 25.2109 53.5409C25.2109 51.7557 25.919 50.0438 27.1793 48.7815C28.4398 47.5193 30.1491 46.8101 31.9314 46.8101C32.6641 46.7765 33.3944 46.9148 34.0644 47.2137C34.7344 47.5127 35.3254 47.9642 35.7904 48.5322V47.2176L39.6625 47.1782ZM35.7904 53.5409C35.8166 52.9016 35.6512 52.269 35.3157 51.7244C34.98 51.1799 34.4895 50.7484 33.9071 50.4854C33.3246 50.2223 32.6769 50.1397 32.0472 50.2483C31.4176 50.3568 30.8347 50.6515 30.3737 51.0943C29.9125 51.5373 29.5942 52.1082 29.4596 52.7337C29.3249 53.3592 29.3802 54.0109 29.6183 54.6046C29.8565 55.1985 30.2664 55.7074 30.7955 56.066C31.3247 56.4248 31.9488 56.6166 32.5877 56.6172C33.0048 56.6467 33.4233 56.5885 33.8164 56.4461C34.2097 56.3036 34.5687 56.0805 34.8705 55.7906C35.1721 55.5008 35.4099 55.1508 35.5684 54.7634C35.7268 54.3759 35.8025 53.9595 35.7904 53.5409Z" fill="#AD63E7"/>
    <path d="M41.9339 53.8037C41.9313 52.4148 42.3402 51.0562 43.1087 49.9C43.8774 48.7438 44.9712 47.842 46.2517 47.3086C47.5321 46.7753 48.9419 46.6344 50.3024 46.9038C51.6629 47.1732 52.9131 47.8407 53.8947 48.8221C54.8762 49.8032 55.5451 51.0541 55.8167 52.4162C56.0881 53.7783 55.9501 55.1905 55.42 56.474C54.8898 57.7575 53.9915 58.8546 52.8386 59.6266C51.6856 60.3987 50.3299 60.8106 48.9431 60.8106C48.0209 60.8212 47.1057 60.6473 46.2514 60.299C45.3971 59.9508 44.6208 59.4353 43.968 58.7827C43.3153 58.1302 42.7991 57.3536 42.4497 56.4985C42.1004 55.6436 41.925 54.7274 41.9339 53.8037ZM51.9883 53.8037C51.9728 53.2041 51.7811 52.6224 51.4372 52.1314C51.0933 51.6402 50.6125 51.2617 50.0549 51.0428C49.4973 50.824 48.8877 50.7748 48.3022 50.9012C47.7167 51.0276 47.1816 51.3242 46.7635 51.7537C46.3455 52.1831 46.0632 52.7266 45.9518 53.3161C45.8406 53.9054 45.9054 54.5146 46.138 55.0673C46.3707 55.62 46.7608 56.0918 47.2597 56.4235C47.7587 56.7553 48.3442 56.9323 48.9431 56.9325C49.3507 56.9403 49.7554 56.864 50.1323 56.7081C50.509 56.5521 50.8497 56.3202 51.1329 56.0266C51.4162 55.7331 51.636 55.3841 51.7787 55.0017C51.9213 54.6193 51.9838 54.2114 51.9621 53.8037H51.9883Z" fill="#AD63E7"/>
    <path d="M57.7773 43.6289C57.7773 43.1557 57.9175 42.6931 58.1799 42.2997C58.4425 41.9063 58.8155 41.5996 59.252 41.4185C59.6886 41.2373 60.1688 41.19 60.6323 41.2823C61.0957 41.3746 61.5213 41.6025 61.8555 41.937C62.1896 42.2717 62.417 42.698 62.5092 43.1621C62.6015 43.6263 62.5541 44.1074 62.3734 44.5445C62.1925 44.9817 61.8863 45.3555 61.4935 45.6183C61.1006 45.8812 60.6388 46.0215 60.1662 46.0215C59.5337 46.0181 58.9281 45.7649 58.4808 45.3169C58.0335 44.8691 57.7808 44.2625 57.7773 43.6289ZM58.1842 47.1784H62.1219V60.4297H58.1842V47.1784Z" fill="#AD63E7"/>
    <path d="M79.2905 53.8037C79.3382 54.6797 79.2126 55.5565 78.9207 56.3836C78.6286 57.2106 78.1763 57.9717 77.5895 58.623C77.0026 59.2742 76.293 59.8028 75.5014 60.1783C74.7098 60.5538 73.8519 60.7687 72.977 60.8107C72.2425 60.846 71.5092 60.7196 70.8289 60.4402C70.1485 60.1608 69.5376 59.7353 69.0393 59.1938V65.7668H65.1016V47.1781H69.0393V48.427C69.5376 47.8854 70.1485 47.46 70.8289 47.1806C71.5092 46.9012 72.2425 46.7747 72.977 46.81C73.8508 46.852 74.7076 47.0665 75.4982 47.4412C76.289 47.8159 76.998 48.3433 77.5846 48.9932C78.1713 49.643 78.6239 50.4024 78.9166 51.228C79.2095 52.0535 79.3365 52.9289 79.2905 53.8037ZM75.3528 53.8037C75.3372 53.1867 75.1413 52.5878 74.7892 52.0812C74.4371 51.5748 73.9445 51.1826 73.3722 50.9537C72.7999 50.7247 72.173 50.6689 71.5695 50.7932C70.9658 50.9174 70.4118 51.2163 69.976 51.6527C69.5402 52.0892 69.242 52.6439 69.1178 53.2486C68.9938 53.8532 69.0496 54.4809 69.2781 55.054C69.5068 55.6272 69.8982 56.1207 70.404 56.4732C70.9098 56.8258 71.5078 57.0221 72.1238 57.0377C72.5538 57.0652 72.9845 57 73.3874 56.8469C73.79 56.6936 74.1553 56.4558 74.4588 56.1495C74.7621 55.8431 74.9966 55.4753 75.1463 55.0707C75.2958 54.6662 75.3574 54.2342 75.3265 53.8037H75.3528Z" fill="#AD63E7"/>
    <path d="M91.5498 56.4597C91.5498 59.5096 88.9247 60.811 86.0369 60.811C84.8834 60.9134 83.7257 60.6675 82.7128 60.1052C81.7 59.5429 80.8782 58.6899 80.3535 57.656L83.7925 55.6972C83.9321 56.1754 84.2309 56.5914 84.6392 56.876C85.0475 57.1605 85.5407 57.2967 86.0369 57.2616C86.9952 57.2616 87.4677 56.9592 87.4677 56.4334C87.4677 54.9741 80.9048 55.7498 80.9048 51.1749C80.9048 48.2827 83.3462 46.8235 86.1551 46.8235C87.1916 46.792 88.2177 47.0386 89.1271 47.5379C90.0364 48.0372 90.7957 48.771 91.3267 49.6631L87.8747 51.4773C87.7222 51.1301 87.4723 50.8347 87.1553 50.627C86.8384 50.4193 86.4683 50.3082 86.0895 50.3072C85.407 50.3072 84.9869 50.5702 84.9869 51.0566C85.0395 52.5684 91.5498 51.5561 91.5498 56.4597Z" fill="#AD63E7"/>
    <path d="M106.04 47.1782V60.4296H102.102V59.1939C101.644 59.743 101.062 60.1757 100.405 60.4568C99.7484 60.7378 99.0342 60.8591 98.3214 60.8109C95.6963 60.8109 93.373 58.9046 93.373 55.3158V47.1782H97.3108V54.7374C97.2762 55.0595 97.3137 55.3853 97.4205 55.6911C97.5272 55.997 97.7005 56.2751 97.9281 56.5055C98.1555 56.7359 98.4314 56.9126 98.7355 57.0229C99.0397 57.1333 99.3646 57.1742 99.6866 57.1431C101.13 57.1431 102.141 56.3017 102.141 54.4219V47.1782H106.04Z" fill="#AD63E7"/>
    <path d="M128.801 52.3053V60.4296H124.863V52.6472C124.863 51.3326 124.22 50.4649 122.96 50.4649C121.7 50.4649 120.886 51.3983 120.886 52.9627V60.4296H116.949V52.6472C116.949 51.3326 116.319 50.4649 115.045 50.4649C113.772 50.4649 112.985 51.3983 112.985 52.9627V60.4296H109.047V47.1784H112.985V48.401C113.396 47.861 113.936 47.4326 114.555 47.1549C115.174 46.877 115.852 46.7585 116.529 46.8103C117.208 46.7772 117.884 46.921 118.491 47.2273C119.098 47.5337 119.616 47.9924 119.994 48.5587C120.433 47.9666 121.015 47.4957 121.685 47.19C122.356 46.8842 123.092 46.7535 123.826 46.8103C126.819 46.8103 128.801 48.9925 128.801 52.3053Z" fill="#AD63E7"/>
    <path d="M132.161 47.0995C133.785 47.0995 135.101 45.781 135.101 44.1547C135.101 42.5283 133.785 41.21 132.161 41.21C130.537 41.21 129.221 42.5283 129.221 44.1547C129.221 45.781 130.537 47.0995 132.161 47.0995Z" fill="#AD63E7"/>
    <path d="M48.1558 31.0612C55.7602 31.0612 61.9247 24.887 61.9247 17.2708C61.9247 9.65463 55.7602 3.48047 48.1558 3.48047C40.5514 3.48047 34.3867 9.65463 34.3867 17.2708C34.3867 24.887 40.5514 31.0612 48.1558 31.0612Z" fill="#AD63E7"/>
    <path d="M78.9351 31.0612C86.5395 31.0612 92.704 24.887 92.704 17.2708C92.704 9.65463 86.5395 3.48047 78.9351 3.48047C71.3307 3.48047 65.166 9.65463 65.166 17.2708C65.166 24.887 71.3307 31.0612 78.9351 31.0612Z" fill="#AD63E7"/>
    <path d="M31.144 3.48047H3.61914V31.048H31.144V3.48047Z" fill="#AD63E7"/>
</svg>
