<svg width="102" height="103" viewBox="0 0 102 103" fill="none" xmlns="http://www.w3.org/2000/svg">
    <rect y="0.329102" width="102" height="102" rx="15" fill="#AD63E7"/>
    <path d="M39.9499 44.9541L60.2224 9.84909C53.9537 8.44914 47.449 8.49061 41.1986 9.97038C34.9483 11.4501 29.1155 14.3296 24.1399 18.3916L39.6949 45.3791L39.9499 44.9541ZM91.5449 38.5791C87.6349 26.1691 78.1574 16.2241 66.0449 11.6341L50.4899 38.5791H91.5449ZM92.6499 42.8291H60.8174L62.0499 44.9541L82.2799 80.0166C89.508 72.2139 93.5164 61.9653 93.4999 51.3291C93.4999 48.3966 93.2024 45.5916 92.6499 42.8291ZM36.2949 51.3291L19.7199 22.6416C15.166 27.5735 11.8506 33.5179 10.0475 39.984C8.24442 46.4501 8.00529 53.2523 9.34988 59.8291H41.1824L36.2949 51.3291ZM10.4549 64.0791C14.3649 76.4891 23.8424 86.4341 35.9549 91.0241L51.5099 64.0791H10.4549ZM58.3524 64.0791L41.7774 92.8091C48.0461 94.209 54.5508 94.1676 60.8011 92.6878C67.0515 91.208 72.8843 88.3286 77.8599 84.2666L62.3049 57.2791L58.3524 64.0791Z" fill="#F0F0F0"/>
</svg>
