<svg width="79" height="80" viewBox="0 0 79 80" fill="none" xmlns="http://www.w3.org/2000/svg">
<g id="iconamoon:notification" filter="url(#filter0_d_201_9942)">
<rect y="0.5" width="70" height="70" rx="15" fill="#73FF97" shape-rendering="crispEdges"/>
<g id="Group">
<g id="Vector">
<path d="M25.3333 46.3335V31.3335C25.3333 28.6813 26.3869 26.1378 28.2623 24.2624C30.1376 22.3871 32.6812 21.3335 35.3333 21.3335C37.9855 21.3335 40.529 22.3871 42.4044 24.2624C44.2798 26.1378 45.3333 28.6813 45.3333 31.3335V46.3335M25.3333 46.3335H45.3333H25.3333ZM25.3333 46.3335H22H25.3333ZM45.3333 46.3335H48.6667H45.3333ZM33.6667 51.3335H37H33.6667Z" fill="#AD63E7"/>
<path d="M25.3333 46.3335V31.3335C25.3333 28.6813 26.3869 26.1378 28.2623 24.2624C30.1376 22.3871 32.6812 21.3335 35.3333 21.3335C37.9855 21.3335 40.529 22.3871 42.4044 24.2624C44.2798 26.1378 45.3333 28.6813 45.3333 31.3335V46.3335M25.3333 46.3335H45.3333M25.3333 46.3335H22M45.3333 46.3335H48.6667M33.6667 51.3335H37" stroke="#494947" stroke-width="3" stroke-linecap="round" stroke-linejoin="round"/>
</g>
<path id="Vector_2" d="M35.3337 21.3333C36.2541 21.3333 37.0003 20.5871 37.0003 19.6667C37.0003 18.7462 36.2541 18 35.3337 18C34.4132 18 33.667 18.7462 33.667 19.6667C33.667 20.5871 34.4132 21.3333 35.3337 21.3333Z" fill="#AD63E7" stroke="#494947" stroke-width="3"/>
</g>
</g>
<defs>
<filter id="filter0_d_201_9942" x="0" y="0.5" width="79" height="79" filterUnits="userSpaceOnUse" color-interpolation-filters="sRGB">
<feFlood flood-opacity="0" result="BackgroundImageFix"/>
<feColorMatrix in="SourceAlpha" type="matrix" values="0 0 0 0 0 0 0 0 0 0 0 0 0 0 0 0 0 0 127 0" result="hardAlpha"/>
<feOffset dx="5" dy="5"/>
<feGaussianBlur stdDeviation="2"/>
<feComposite in2="hardAlpha" operator="out"/>
<feColorMatrix type="matrix" values="0 0 0 0 0 0 0 0 0 0 0 0 0 0 0 0 0 0 0.25 0"/>
<feBlend mode="normal" in2="BackgroundImageFix" result="effect1_dropShadow_201_9942"/>
<feBlend mode="normal" in="SourceGraphic" in2="effect1_dropShadow_201_9942" result="shape"/>
</filter>
</defs>
</svg>
