<svg width="48" height="35" viewBox="0 0 48 35" fill="none" xmlns="http://www.w3.org/2000/svg">
<path d="M39.9351 2.96552C45.133 10.5866 47.7 19.183 46.7404 29.0794C46.7364 29.1213 46.7145 29.1597 46.68 29.185C42.7437 32.0673 38.93 33.8165 35.1698 34.9765C35.1406 34.9854 35.1092 34.9849 35.0802 34.9751C35.0513 34.9654 35.0261 34.9468 35.0082 34.922C34.1395 33.7167 33.3502 32.4459 32.6586 31.1115C32.6189 31.0329 32.6552 30.9382 32.7369 30.9073C33.9905 30.4362 35.1825 29.8717 36.3291 29.2033C36.4194 29.1506 36.4252 29.0215 36.3417 28.9595C36.0984 28.7794 35.8573 28.5901 35.6266 28.4007C35.5835 28.3657 35.5254 28.3589 35.4765 28.3824C28.0326 31.8103 19.8782 31.8103 12.3463 28.3824C12.2974 28.3606 12.2393 28.368 12.1973 28.4025C11.9672 28.5918 11.7256 28.7794 11.4845 28.9595C11.4011 29.0215 11.408 29.1506 11.4989 29.2033C12.6455 29.8591 13.8375 30.4362 15.0894 30.9095C15.1705 30.9405 15.2091 31.0329 15.1688 31.1115C14.4922 32.4477 13.7029 33.7184 12.8181 34.9238C12.7796 34.9725 12.7163 34.9949 12.6564 34.9765C8.91408 33.8165 5.10039 32.0673 1.16415 29.185C1.13136 29.1597 1.10777 29.1196 1.10432 29.0777C0.302342 20.5175 1.93678 11.8499 7.90327 2.9638C7.91765 2.94028 7.93951 2.92192 7.96483 2.91102C10.9006 1.5674 14.0458 0.578907 17.3331 0.0143814C17.3929 0.00520207 17.4528 0.0327399 17.4838 0.0855208C17.89 0.802652 18.3543 1.7223 18.6684 2.47386C22.1334 1.94605 25.6526 1.94605 29.1901 2.47386C29.5042 1.73837 29.9524 0.802652 30.3568 0.0855208C30.3712 0.0593368 30.3936 0.0383595 30.4206 0.025584C30.4477 0.0128084 30.4781 0.00888758 30.5076 0.0143814C33.7966 0.580628 36.9418 1.56912 39.8753 2.91102C39.9011 2.92192 39.9224 2.94028 39.9351 2.96552ZM20.43 19.2415C20.4662 16.7109 18.616 14.6169 16.2935 14.6169C13.99 14.6169 12.1576 16.6926 12.1576 19.2415C12.1576 21.7899 14.0262 23.8656 16.2935 23.8656C18.5976 23.8656 20.43 21.7899 20.43 19.2415ZM35.7227 19.2415C35.759 16.7109 33.9088 14.6169 31.5868 14.6169C29.2827 14.6169 27.4504 16.6926 27.4504 19.2415C27.4504 21.7899 29.319 23.8656 31.5868 23.8656C33.9088 23.8656 35.7227 21.7899 35.7227 19.2415Z" fill="#F0F0F0"/>
</svg>
