<svg width="102" height="102" viewBox="0 0 102 102" fill="none" xmlns="http://www.w3.org/2000/svg">
<rect width="102" height="102" rx="15" fill="#AD63E7"/>
<path d="M39.9499 44.6251L60.2224 9.52011C53.9537 8.12016 47.449 8.16163 41.1986 9.6414C34.9483 11.1212 29.1155 14.0006 24.1399 18.0626L39.6949 45.0501L39.9499 44.6251ZM91.5449 38.2501C87.6349 25.8401 78.1574 15.8951 66.0449 11.3051L50.4899 38.2501H91.5449ZM92.6499 42.5001H60.8174L62.0499 44.6251L82.2799 79.6876C89.508 71.8849 93.5164 61.6363 93.4999 51.0001C93.4999 48.0676 93.2024 45.2626 92.6499 42.5001ZM36.2949 51.0001L19.7199 22.3126C15.166 27.2445 11.8506 33.1889 10.0475 39.655C8.24442 46.1211 8.00529 52.9234 9.34988 59.5001H41.1824L36.2949 51.0001ZM10.4549 63.7501C14.3649 76.1601 23.8424 86.1051 35.9549 90.6951L51.5099 63.7501H10.4549ZM58.3524 63.7501L41.7774 92.4801C48.0461 93.8801 54.5508 93.8386 60.8011 92.3588C67.0515 90.8791 72.8843 87.9996 77.8599 83.9376L62.3049 56.9501L58.3524 63.7501Z" fill="#F0F0F0"/>
</svg>
