<svg width="46" height="45" viewBox="0 0 46 45" fill="none" xmlns="http://www.w3.org/2000/svg">
<path fill-rule="evenodd" clip-rule="evenodd" d="M22.79 6.89697C13.5164 6.89697 6 14.25 6 23.322C6 30.576 10.8116 36.732 17.4816 38.91C18.3188 39.063 18.6316 38.55 18.6316 38.118C18.6316 37.722 18.6132 36.435 18.6132 35.058C13.9396 36.048 12.9552 33.123 12.9552 33.123C12.1916 31.224 11.0876 30.72 11.0876 30.72C9.5604 29.703 11.198 29.721 11.198 29.721C12.8816 29.838 13.774 31.413 13.774 31.413C15.2736 33.924 17.7024 33.195 18.6592 32.781C18.8064 31.719 19.248 30.999 19.7264 30.585C16.0004 30.171 12.072 28.758 12.072 22.467C12.072 20.676 12.7252 19.209 13.8016 18.057C13.6268 17.643 13.0564 15.969 13.9672 13.71C13.9672 13.71 15.3748 13.269 18.5856 15.393C19.9288 15.033 21.364 14.844 22.79 14.844C24.216 14.853 25.6512 15.033 26.9944 15.393C30.196 13.269 31.6036 13.71 31.6036 13.71C32.5144 15.969 31.944 17.643 31.7692 18.057C32.8456 19.209 33.4988 20.676 33.4988 22.467C33.4988 28.776 29.5704 30.162 25.8352 30.567C26.4332 31.08 26.976 32.079 26.976 33.609C26.976 35.805 26.9576 37.578 26.9576 38.118C26.9576 38.559 27.2612 39.063 28.1076 38.91C34.7776 36.732 39.58 30.585 39.58 23.322C39.58 14.25 32.0636 6.89697 22.79 6.89697Z" fill="#F0F0F0"/>
<path d="M12.3564 30.4769C12.3196 30.5579 12.1908 30.5849 12.0712 30.5309C11.9516 30.4769 11.878 30.3689 11.924 30.2879C11.9608 30.2069 12.0896 30.1799 12.2092 30.2339C12.3288 30.2879 12.4024 30.3959 12.3564 30.4769Z" fill="#F0F0F0"/>
<path d="M13.0394 31.2239C12.9566 31.2959 12.8002 31.2599 12.699 31.1519C12.5886 31.0349 12.5702 30.8819 12.653 30.8099C12.7358 30.7379 12.883 30.7739 12.9934 30.8819C13.1038 30.9989 13.1222 31.1519 13.0394 31.2239Z" fill="#F0F0F0"/>
<path d="M13.6992 32.169C13.598 32.241 13.4324 32.178 13.322 32.025C13.2208 31.881 13.2208 31.701 13.322 31.629C13.4232 31.557 13.5888 31.62 13.6992 31.764C13.8096 31.917 13.8096 32.097 13.6992 32.169Z" fill="#F0F0F0"/>
<path d="M14.6097 33.0779C14.5177 33.1769 14.3245 33.15 14.1773 33.015C14.0301 32.88 13.9933 32.6909 14.0853 32.5919C14.1773 32.4929 14.3797 32.52 14.5177 32.655C14.6649 32.799 14.7017 32.9879 14.6097 33.0779Z" fill="#F0F0F0"/>
<path d="M15.8621 33.609C15.8253 33.735 15.6321 33.798 15.4389 33.744C15.2457 33.69 15.1261 33.537 15.1629 33.411C15.1997 33.285 15.3929 33.222 15.5861 33.276C15.7701 33.33 15.8989 33.483 15.8621 33.609Z" fill="#F0F0F0"/>
<path d="M17.2346 33.7078C17.2438 33.8428 17.0782 33.9598 16.8758 33.9598C16.6734 33.9688 16.517 33.8518 16.5078 33.7168C16.5078 33.5818 16.6642 33.4648 16.8666 33.4648C17.069 33.4648 17.2346 33.5728 17.2346 33.7078Z" fill="#F0F0F0"/>
<path d="M18.5125 33.5011C18.5401 33.6361 18.4021 33.7711 18.1997 33.8071C18.0065 33.8431 17.8225 33.7621 17.8041 33.6271C17.7765 33.4921 17.9237 33.3571 18.1169 33.3211C18.3101 33.2851 18.4849 33.3661 18.5125 33.5011Z" fill="#F0F0F0"/>
</svg>
