<svg width="40" height="40" viewBox="0 0 40 40" fill="none" xmlns="http://www.w3.org/2000/svg">
<path d="M19.9987 3.33325C17.81 3.33325 15.6427 3.76435 13.6206 4.60193C11.5985 5.4395 9.76123 6.66716 8.21358 8.21481C5.08798 11.3404 3.33203 15.5796 3.33203 19.9999C3.33203 27.3666 8.11536 33.6166 14.732 35.8333C15.5654 35.9666 15.832 35.4499 15.832 34.9999V32.1833C11.2154 33.1833 10.232 29.9499 10.232 29.9499C9.46536 28.0166 8.38203 27.4999 8.38203 27.4999C6.86536 26.4666 8.4987 26.4999 8.4987 26.4999C10.1654 26.6166 11.0487 28.2166 11.0487 28.2166C12.4987 30.7499 14.9487 29.9999 15.8987 29.5999C16.0487 28.5166 16.482 27.7833 16.9487 27.3666C13.2487 26.9499 9.36536 25.5166 9.36536 19.1666C9.36536 17.3166 9.9987 15.8333 11.082 14.6499C10.9154 14.2333 10.332 12.4999 11.2487 10.2499C11.2487 10.2499 12.6487 9.79992 15.832 11.9499C17.1487 11.5833 18.582 11.3999 19.9987 11.3999C21.4154 11.3999 22.8487 11.5833 24.1654 11.9499C27.3487 9.79992 28.7487 10.2499 28.7487 10.2499C29.6654 12.4999 29.082 14.2333 28.9154 14.6499C29.9987 15.8333 30.632 17.3166 30.632 19.1666C30.632 25.5333 26.732 26.9333 23.0154 27.3499C23.6154 27.8666 24.1654 28.8833 24.1654 30.4333V34.9999C24.1654 35.4499 24.432 35.9833 25.282 35.8333C31.8987 33.5999 36.6654 27.3666 36.6654 19.9999C36.6654 17.8112 36.2343 15.644 35.3967 13.6219C34.5591 11.5998 33.3315 9.76245 31.7838 8.21481C30.2362 6.66716 28.3988 5.4395 26.3768 4.60193C24.3547 3.76435 22.1874 3.33325 19.9987 3.33325Z" fill="#E6EDF3"/>
</svg>
