<svg width="40" height="40" viewBox="0 0 40 40" fill="none" xmlns="http://www.w3.org/2000/svg">
<path d="M8.47636 16.1849H13.4797V31.2366H8.47636V16.1849ZM10.978 14.1299H10.9447C10.5856 14.1537 10.2255 14.1029 9.88701 13.9807C9.54852 13.8586 9.23896 13.6677 8.97781 13.4201C8.71667 13.1725 8.50957 12.8736 8.36957 12.5421C8.22956 12.2106 8.15966 11.8537 8.16428 11.4938C8.16889 11.134 8.24791 10.779 8.39637 10.4512C8.54483 10.1234 8.75952 9.82986 9.02693 9.58904C9.29434 9.34823 9.60869 9.16535 9.95021 9.05192C10.2917 8.93849 10.653 8.89695 11.0114 8.92992C11.3704 8.90355 11.7311 8.95181 12.0706 9.07165C12.4101 9.19149 12.7211 9.38032 12.984 9.62624C13.247 9.87217 13.4562 10.1699 13.5984 10.5006C13.7407 10.8313 13.8129 11.1879 13.8106 11.548C13.8083 11.908 13.7315 12.2636 13.585 12.5925C13.4385 12.9214 13.2255 13.2164 12.9595 13.4589C12.6934 13.7015 12.38 13.8863 12.039 14.0018C11.6979 14.1173 11.3367 14.1609 10.978 14.1299ZM31.5197 31.2366H26.5164V23.1866C26.5164 21.1616 25.793 19.7816 23.983 19.7816C23.4188 19.785 22.8694 19.9627 22.41 20.2902C21.9505 20.6178 21.6035 21.0793 21.4164 21.6116C21.2871 22.0047 21.2306 22.4182 21.2497 22.8316V31.2366H16.2497C16.2497 31.2316 16.3164 17.5966 16.2497 16.1866H21.253V18.3199C21.705 17.5325 22.3643 16.8841 23.1593 16.4453C23.9542 16.0066 24.8542 15.7943 25.7614 15.8316C29.053 15.8316 31.5214 17.9832 31.5214 22.6066L31.5197 31.2366Z" fill="white"/>
<path d="M34.1142 3.33324H5.8875C5.24595 3.32523 4.62747 3.57232 4.16804 4.02018C3.70862 4.46805 3.44585 5.08002 3.4375 5.72157V34.2799C3.45583 35.6132 4.5525 36.6832 5.8875 36.6666H34.1142C34.4318 36.6708 34.7471 36.6123 35.0421 36.4947C35.3371 36.377 35.606 36.2023 35.8335 35.9807C36.061 35.7591 36.2426 35.4948 36.368 35.203C36.4934 34.9112 36.56 34.5975 36.5642 34.2799V5.72157C36.5602 5.4037 36.4937 5.08972 36.3683 4.79759C36.243 4.50546 36.0612 4.24092 35.8335 4.01909C35.6058 3.79727 35.3366 3.62251 35.0413 3.50483C34.746 3.38714 34.4304 3.32883 34.1125 3.33324H34.1142ZM13.4808 31.2366H8.4775V16.1849H13.4808V31.2366ZM11.3892 14.1332C11.2526 14.1429 11.1155 14.1417 10.9792 14.1299H10.9458C10.5868 14.1537 10.2266 14.1029 9.88815 13.9807C9.54966 13.8586 9.2401 13.6677 8.97895 13.4201C8.7178 13.1725 8.51071 12.8736 8.3707 12.5421C8.2307 12.2106 8.1608 11.8537 8.16541 11.4938C8.17003 11.134 8.24905 10.779 8.39751 10.4512C8.54597 10.1234 8.76066 9.82985 9.02807 9.58904C9.29548 9.34822 9.60983 9.16535 9.95134 9.05191C10.2929 8.93848 10.6542 8.89694 11.0125 8.92991C11.7025 8.87996 12.3841 9.10616 12.9073 9.55875C13.4305 10.0113 13.7525 10.6532 13.8025 11.3432C13.8524 12.0332 13.6262 12.7148 13.1737 13.2381C12.7211 13.7613 12.0792 14.0833 11.3892 14.1332ZM31.5208 31.2366H26.5175V23.1866C26.5175 21.1616 25.7942 19.7816 23.9842 19.7816C23.4199 19.785 22.8705 19.9626 22.4111 20.2902C21.9517 20.6178 21.6047 21.0793 21.4175 21.6116C21.2889 22.0049 21.2324 22.4182 21.2508 22.8316V31.2366H16.2508C16.2508 31.2316 16.3175 17.5966 16.2508 16.1866H21.2542V18.3199C21.7062 17.5325 22.3655 16.8841 23.1604 16.4453C23.9553 16.0066 24.8553 15.7943 25.7625 15.8316C29.0542 15.8316 31.5225 17.9832 31.5225 22.6066L31.5208 31.2366Z" fill="#0A66C2"/>
</svg>
