<svg width="139" height="71" viewBox="0 0 139 71" fill="none" xmlns="http://www.w3.org/2000/svg">
<path d="M3.59375 41.0916H7.53151V60.4296H3.59375V41.0916Z" fill="#AD63E7"/>
<path d="M9.81672 53.804C9.81412 52.415 10.223 51.0564 10.9916 49.9002C11.7602 48.7441 12.854 47.8422 14.1345 47.3089C15.415 46.7755 16.8247 46.6347 18.1853 46.904C19.5458 47.1734 20.796 47.841 21.7774 48.8223C22.7591 49.8035 23.4279 51.0543 23.6994 52.4164C23.971 53.7785 23.833 55.1907 23.3028 56.4743C22.7727 57.7577 21.8743 58.8549 20.7213 59.6268C19.5684 60.3989 18.2128 60.8109 16.826 60.8109C15.9036 60.8214 14.9885 60.6476 14.1342 60.2992C13.28 59.9511 12.5037 59.4355 11.8509 58.7829C11.1981 58.1304 10.6819 57.3539 10.3326 56.4988C9.98331 55.6439 9.80792 54.7277 9.81672 53.804ZM19.8711 53.804C19.8556 53.2044 19.6639 52.6226 19.3201 52.1316C18.9762 51.6404 18.4954 51.2619 17.9377 51.0431C17.38 50.8242 16.7704 50.7751 16.185 50.9015C15.5996 51.0279 15.0644 51.3244 14.6463 51.7539C14.2283 52.1834 13.946 52.7269 13.8348 53.3163C13.7235 53.9056 13.7882 54.5148 14.0208 55.0675C14.2535 55.6202 14.6437 56.092 15.1425 56.4238C15.6416 56.7555 16.227 56.9326 16.826 56.9327C17.2356 56.9443 17.6433 56.8706 18.0232 56.7164C18.4031 56.5621 18.747 56.3308 19.0332 56.0367C19.3192 55.7427 19.5415 55.3926 19.6856 55.0083C19.8299 54.624 19.893 54.214 19.8711 53.804Z" fill="#AD63E7"/>
<path d="M39.6625 47.1782V59.7722C39.6625 64.2288 36.1842 66.1087 32.6665 66.1087C31.4295 66.2009 30.191 65.9503 29.0867 65.3845C27.9823 64.8188 27.0548 63.9595 26.4055 62.9011L29.792 60.9423C30.0606 61.4847 30.4858 61.9339 31.0124 62.2316C31.5389 62.5292 32.1426 62.6618 32.7453 62.6118C33.1417 62.678 33.5482 62.6522 33.9332 62.536C34.3182 62.4201 34.6714 62.2171 34.9657 61.9427C35.2598 61.6683 35.4872 61.3299 35.6302 60.9536C35.7733 60.5773 35.828 60.1731 35.7904 59.7722V58.5496C35.3275 59.1201 34.7367 59.5733 34.0663 59.8724C33.396 60.1716 32.6645 60.3085 31.9314 60.2718C30.1491 60.2718 28.4398 59.5627 27.1793 58.3004C25.919 57.0381 25.2109 55.3261 25.2109 53.5409C25.2109 51.7557 25.919 50.0438 27.1793 48.7815C28.4398 47.5193 30.1491 46.8101 31.9314 46.8101C32.6641 46.7765 33.3944 46.9148 34.0644 47.2137C34.7344 47.5127 35.3254 47.9642 35.7904 48.5322V47.2176L39.6625 47.1782ZM35.7904 53.5409C35.8166 52.9016 35.6512 52.269 35.3157 51.7244C34.98 51.1799 34.4895 50.7484 33.9071 50.4854C33.3246 50.2223 32.6769 50.1397 32.0472 50.2483C31.4176 50.3568 30.8347 50.6515 30.3737 51.0943C29.9125 51.5373 29.5942 52.1082 29.4596 52.7337C29.3249 53.3592 29.3802 54.0109 29.6183 54.6046C29.8565 55.1985 30.2664 55.7074 30.7955 56.066C31.3247 56.4248 31.9488 56.6166 32.5877 56.6172C33.0048 56.6467 33.4233 56.5885 33.8164 56.4461C34.2097 56.3036 34.5687 56.0805 34.8705 55.7906C35.1721 55.5008 35.4099 55.1508 35.5684 54.7634C35.7268 54.3759 35.8025 53.9595 35.7904 53.5409Z" fill="#AD63E7"/>
<path d="M41.9339 53.804C41.9313 52.415 42.3402 51.0564 43.1087 49.9002C43.8774 48.7441 44.9712 47.8422 46.2517 47.3089C47.5321 46.7755 48.9419 46.6347 50.3024 46.904C51.6629 47.1734 52.9131 47.841 53.8947 48.8223C54.8762 49.8035 55.5451 51.0543 55.8167 52.4164C56.0881 53.7785 55.9501 55.1907 55.42 56.4743C54.8898 57.7577 53.9915 58.8549 52.8386 59.6268C51.6856 60.3989 50.3299 60.8109 48.9431 60.8109C48.0209 60.8214 47.1057 60.6476 46.2514 60.2992C45.3971 59.9511 44.6208 59.4355 43.968 58.7829C43.3153 58.1304 42.7991 57.3539 42.4497 56.4988C42.1004 55.6439 41.925 54.7277 41.9339 53.804ZM51.9883 53.804C51.9728 53.2044 51.7811 52.6226 51.4372 52.1316C51.0933 51.6404 50.6125 51.2619 50.0549 51.0431C49.4973 50.8242 48.8877 50.7751 48.3022 50.9015C47.7167 51.0279 47.1816 51.3244 46.7635 51.7539C46.3455 52.1834 46.0632 52.7269 45.9518 53.3163C45.8406 53.9056 45.9054 54.5148 46.138 55.0675C46.3707 55.6202 46.7608 56.092 47.2597 56.4238C47.7587 56.7555 48.3442 56.9326 48.9431 56.9327C49.3507 56.9405 49.7554 56.8642 50.1323 56.7083C50.509 56.5524 50.8497 56.3205 51.1329 56.0268C51.4162 55.7334 51.636 55.3844 51.7787 55.0019C51.9213 54.6195 51.9838 54.2116 51.9621 53.804H51.9883Z" fill="#AD63E7"/>
<path d="M57.7773 43.6289C57.7773 43.1557 57.9175 42.6931 58.1799 42.2997C58.4425 41.9063 58.8155 41.5996 59.252 41.4185C59.6886 41.2373 60.1688 41.19 60.6323 41.2823C61.0957 41.3746 61.5213 41.6025 61.8555 41.937C62.1896 42.2717 62.417 42.698 62.5092 43.1621C62.6015 43.6263 62.5541 44.1074 62.3734 44.5445C62.1925 44.9817 61.8863 45.3555 61.4935 45.6183C61.1006 45.8812 60.6388 46.0215 60.1662 46.0215C59.5337 46.0181 58.9281 45.7649 58.4808 45.3169C58.0335 44.8691 57.7808 44.2625 57.7773 43.6289ZM58.1842 47.1784H62.1219V60.4297H58.1842V47.1784Z" fill="#AD63E7"/>
<path d="M79.2905 53.804C79.3382 54.6799 79.2126 55.5567 78.9207 56.3838C78.6286 57.2109 78.1763 57.972 77.5895 58.6232C77.0026 59.2745 76.293 59.8031 75.5014 60.1785C74.7098 60.554 73.8519 60.7689 72.977 60.811C72.2425 60.8462 71.5092 60.7198 70.8289 60.4404C70.1485 60.161 69.5376 59.7356 69.0393 59.194V65.7671H65.1016V47.1783H69.0393V48.4272C69.5376 47.8857 70.1485 47.4602 70.8289 47.1808C71.5092 46.9014 72.2425 46.775 72.977 46.8102C73.8508 46.8523 74.7076 47.0668 75.4982 47.4414C76.289 47.8162 76.998 48.3435 77.5846 48.9934C78.1713 49.6433 78.6239 50.4027 78.9166 51.2282C79.2095 52.0538 79.3365 52.9292 79.2905 53.804ZM75.3528 53.804C75.3372 53.187 75.1413 52.5881 74.7892 52.0815C74.4371 51.575 73.9445 51.1828 73.3722 50.954C72.7999 50.725 72.173 50.6691 71.5695 50.7935C70.9658 50.9176 70.4118 51.2165 69.976 51.653C69.5402 52.0894 69.242 52.6442 69.1178 53.2488C68.9938 53.8534 69.0496 54.4811 69.2781 55.0543C69.5068 55.6274 69.8982 56.121 70.404 56.4734C70.9098 56.8261 71.5078 57.0224 72.1238 57.038C72.5538 57.0654 72.9845 57.0002 73.3874 56.8471C73.79 56.6938 74.1553 56.4561 74.4588 56.1498C74.7621 55.8434 74.9966 55.4756 75.1463 55.071C75.2958 54.6664 75.3574 54.2344 75.3265 53.804H75.3528Z" fill="#AD63E7"/>
<path d="M91.5479 56.4595C91.5479 59.5094 88.9227 60.8108 86.035 60.8108C84.8814 60.9131 83.7237 60.6673 82.7108 60.105C81.6981 59.5427 80.8763 58.6897 80.3516 57.6557L83.7906 55.697C83.9301 56.1752 84.229 56.5912 84.6372 56.8757C85.0456 57.1603 85.5388 57.2964 86.035 57.2613C86.9933 57.2613 87.4657 56.959 87.4657 56.4332C87.4657 54.9739 80.9028 55.7496 80.9028 51.1747C80.9028 48.2825 83.3442 46.8232 86.1531 46.8232C87.1897 46.7918 88.2158 47.0383 89.1251 47.5377C90.0344 48.0369 90.7938 48.7707 91.3248 49.6628L87.8727 51.4771C87.7202 51.1299 87.4703 50.8345 87.1534 50.6267C86.8365 50.419 86.4663 50.3079 86.0875 50.307C85.405 50.307 84.985 50.5699 84.985 51.0564C85.0375 52.5681 91.5479 51.5559 91.5479 56.4595Z" fill="#AD63E7"/>
<path d="M106.042 47.1782V60.4296H102.104V59.1939C101.646 59.743 101.064 60.1757 100.407 60.4568C99.7504 60.7378 99.0362 60.8591 98.3234 60.8109C95.6982 60.8109 93.375 58.9046 93.375 55.3158V47.1782H97.3127V54.7374C97.2781 55.0595 97.3157 55.3853 97.4224 55.6911C97.5292 55.997 97.7025 56.2751 97.93 56.5055C98.1574 56.7359 98.4334 56.9126 98.7375 57.0229C99.0416 57.1333 99.3666 57.1742 99.6885 57.1431C101.132 57.1431 102.143 56.3017 102.143 54.4219V47.1782H106.042Z" fill="#AD63E7"/>
<path d="M128.801 52.3051V60.4294H124.863V52.647C124.863 51.3323 124.22 50.4646 122.96 50.4646C121.7 50.4646 120.886 51.3981 120.886 52.9624V60.4294H116.949V52.647C116.949 51.3323 116.319 50.4646 115.045 50.4646C113.772 50.4646 112.985 51.3981 112.985 52.9624V60.4294H109.047V47.1782H112.985V48.4007C113.396 47.8607 113.936 47.4324 114.555 47.1546C115.174 46.8768 115.852 46.7583 116.529 46.8101C117.208 46.7769 117.884 46.9207 118.491 47.227C119.098 47.5334 119.616 47.9921 119.994 48.5585C120.433 47.9664 121.015 47.4954 121.685 47.1897C122.356 46.884 123.092 46.7533 123.826 46.8101C126.819 46.8101 128.801 48.9923 128.801 52.3051Z" fill="#AD63E7"/>
<path d="M132.159 47.0995C133.783 47.0995 135.099 45.781 135.099 44.1547C135.099 42.5283 133.783 41.21 132.159 41.21C130.535 41.21 129.219 42.5283 129.219 44.1547C129.219 45.781 130.535 47.0995 132.159 47.0995Z" fill="#AD63E7"/>
<path d="M48.1558 31.0612C55.7602 31.0612 61.9247 24.887 61.9247 17.2708C61.9247 9.65463 55.7602 3.48047 48.1558 3.48047C40.5514 3.48047 34.3867 9.65463 34.3867 17.2708C34.3867 24.887 40.5514 31.0612 48.1558 31.0612Z" fill="#AD63E7"/>
<path d="M78.937 31.0612C86.5414 31.0612 92.706 24.887 92.706 17.2708C92.706 9.65463 86.5414 3.48047 78.937 3.48047C71.3326 3.48047 65.168 9.65463 65.168 17.2708C65.168 24.887 71.3326 31.0612 78.937 31.0612Z" fill="#AD63E7"/>
<path d="M31.1459 3.48047H3.62109V31.048H31.1459V3.48047Z" fill="#AD63E7"/>
</svg>
