<svg width="33" height="31" viewBox="0 0 33 31" fill="none" xmlns="http://www.w3.org/2000/svg">
<path d="M32.783 5.27343C31.5818 5.81343 30.2882 6.17343 28.9352 6.3401C30.3212 5.5001 31.3772 4.17343 31.8788 2.6001C30.5852 3.36676 29.153 3.93343 27.6284 4.23343C26.4074 2.9201 24.665 2.1001 22.7378 2.1001C19.0352 2.1001 16.0388 5.12676 16.0388 8.86676C16.0388 9.4001 16.0982 9.91343 16.2104 10.4068C10.6466 10.1268 5.70981 7.43343 2.40321 3.3401C1.82901 4.3401 1.49901 5.5001 1.49901 6.7401C1.49901 9.08676 2.68041 11.1601 4.47561 12.3734C3.38001 12.3401 2.34381 12.0334 1.43961 11.5268C1.43961 11.5534 1.43961 11.5801 1.43961 11.6134C1.43961 14.8934 3.74961 17.6268 6.81201 18.2468C6.25101 18.4001 5.65701 18.4868 5.04981 18.4868C4.62081 18.4868 4.19841 18.4468 3.78921 18.3668C4.64061 21.0534 7.11561 23.0134 10.046 23.0668C7.75581 24.8801 4.86501 25.9601 1.73001 25.9601C1.18881 25.9601 0.654212 25.9268 0.132812 25.8668C3.09621 27.7868 6.62061 28.9068 10.4024 28.9068C22.7246 28.9068 29.4632 18.6001 29.4632 9.65343C29.4632 9.3601 29.4566 9.06676 29.4434 8.7801C30.7502 7.8201 31.8854 6.62676 32.783 5.27343Z" fill="#F0F0F0"/>
</svg>
